<mxfile host="app.diagrams.net" agent="Mozilla/5.0 (X11; Linux x86_64; rv:109.0) Gecko/20100101 Firefox/115.0" version="25.0.3">
  <diagram id="C5RBs43oDa-KdzZeNtuy" name="Page-1">
    <mxGraphModel dx="1112" dy="572" grid="1" gridSize="10" guides="1" tooltips="1" connect="1" arrows="1" fold="1" page="1" pageScale="1" pageWidth="827" pageHeight="1169" math="0" shadow="0">
      <root>
        <mxCell id="WIyWlLk6GJQsqaUBKTNV-0" />
        <mxCell id="WIyWlLk6GJQsqaUBKTNV-1" parent="WIyWlLk6GJQsqaUBKTNV-0" />
        <mxCell id="oKDmXH82qVewaRRwdx9o-18" style="edgeStyle=orthogonalEdgeStyle;rounded=0;orthogonalLoop=1;jettySize=auto;html=1;exitX=1;exitY=0.75;exitDx=0;exitDy=0;entryX=0;entryY=0.25;entryDx=0;entryDy=0;" edge="1" parent="WIyWlLk6GJQsqaUBKTNV-1" source="oKDmXH82qVewaRRwdx9o-5" target="oKDmXH82qVewaRRwdx9o-15">
          <mxGeometry relative="1" as="geometry" />
        </mxCell>
        <mxCell id="oKDmXH82qVewaRRwdx9o-5" value="登陆账号" style="rounded=1;whiteSpace=wrap;html=1;" vertex="1" parent="WIyWlLk6GJQsqaUBKTNV-1">
          <mxGeometry x="70" y="300" width="120" height="60" as="geometry" />
        </mxCell>
        <mxCell id="oKDmXH82qVewaRRwdx9o-11" style="edgeStyle=orthogonalEdgeStyle;rounded=0;orthogonalLoop=1;jettySize=auto;html=1;exitX=1;exitY=0.25;exitDx=0;exitDy=0;entryX=0;entryY=0.75;entryDx=0;entryDy=0;" edge="1" parent="WIyWlLk6GJQsqaUBKTNV-1" source="oKDmXH82qVewaRRwdx9o-6" target="oKDmXH82qVewaRRwdx9o-7">
          <mxGeometry relative="1" as="geometry" />
        </mxCell>
        <mxCell id="oKDmXH82qVewaRRwdx9o-6" value="创建店长账号" style="rounded=1;whiteSpace=wrap;html=1;" vertex="1" parent="WIyWlLk6GJQsqaUBKTNV-1">
          <mxGeometry x="249" y="110" width="120" height="60" as="geometry" />
        </mxCell>
        <mxCell id="oKDmXH82qVewaRRwdx9o-12" style="edgeStyle=orthogonalEdgeStyle;rounded=0;orthogonalLoop=1;jettySize=auto;html=1;exitX=0.5;exitY=1;exitDx=0;exitDy=0;entryX=0.5;entryY=0;entryDx=0;entryDy=0;" edge="1" parent="WIyWlLk6GJQsqaUBKTNV-1" source="oKDmXH82qVewaRRwdx9o-7" target="oKDmXH82qVewaRRwdx9o-8">
          <mxGeometry relative="1" as="geometry" />
        </mxCell>
        <mxCell id="oKDmXH82qVewaRRwdx9o-7" value="创建销售人员账号" style="rounded=1;whiteSpace=wrap;html=1;" vertex="1" parent="WIyWlLk6GJQsqaUBKTNV-1">
          <mxGeometry x="459" y="30" width="120" height="60" as="geometry" />
        </mxCell>
        <mxCell id="oKDmXH82qVewaRRwdx9o-8" value="&lt;div&gt;创建顾客账号&lt;/div&gt;" style="rounded=1;whiteSpace=wrap;html=1;" vertex="1" parent="WIyWlLk6GJQsqaUBKTNV-1">
          <mxGeometry x="459" y="170" width="120" height="60" as="geometry" />
        </mxCell>
        <mxCell id="oKDmXH82qVewaRRwdx9o-13" style="edgeStyle=orthogonalEdgeStyle;rounded=0;orthogonalLoop=1;jettySize=auto;html=1;exitX=1;exitY=0.75;exitDx=0;exitDy=0;entryX=0;entryY=0.367;entryDx=0;entryDy=0;entryPerimeter=0;" edge="1" parent="WIyWlLk6GJQsqaUBKTNV-1" source="oKDmXH82qVewaRRwdx9o-6" target="oKDmXH82qVewaRRwdx9o-8">
          <mxGeometry relative="1" as="geometry" />
        </mxCell>
        <mxCell id="oKDmXH82qVewaRRwdx9o-14" value="&lt;div&gt;命令行传入&lt;/div&gt;&lt;div&gt;用户名/密码&lt;/div&gt;" style="rounded=1;whiteSpace=wrap;html=1;" vertex="1" parent="WIyWlLk6GJQsqaUBKTNV-1">
          <mxGeometry x="270" y="270" width="120" height="60" as="geometry" />
        </mxCell>
        <mxCell id="oKDmXH82qVewaRRwdx9o-15" value="使用 session file" style="rounded=1;whiteSpace=wrap;html=1;" vertex="1" parent="WIyWlLk6GJQsqaUBKTNV-1">
          <mxGeometry x="270" y="370" width="120" height="60" as="geometry" />
        </mxCell>
        <mxCell id="oKDmXH82qVewaRRwdx9o-16" style="edgeStyle=orthogonalEdgeStyle;rounded=0;orthogonalLoop=1;jettySize=auto;html=1;exitX=1;exitY=0.25;exitDx=0;exitDy=0;entryX=0;entryY=0.4;entryDx=0;entryDy=0;entryPerimeter=0;" edge="1" parent="WIyWlLk6GJQsqaUBKTNV-1" source="oKDmXH82qVewaRRwdx9o-5" target="oKDmXH82qVewaRRwdx9o-14">
          <mxGeometry relative="1" as="geometry" />
        </mxCell>
        <mxCell id="oKDmXH82qVewaRRwdx9o-20" style="edgeStyle=orthogonalEdgeStyle;rounded=0;orthogonalLoop=1;jettySize=auto;html=1;exitX=1;exitY=0.5;exitDx=0;exitDy=0;" edge="1" parent="WIyWlLk6GJQsqaUBKTNV-1" source="oKDmXH82qVewaRRwdx9o-19" target="oKDmXH82qVewaRRwdx9o-6">
          <mxGeometry relative="1" as="geometry" />
        </mxCell>
        <mxCell id="oKDmXH82qVewaRRwdx9o-19" value="&lt;div&gt;初次使用&lt;/div&gt;" style="rounded=1;whiteSpace=wrap;html=1;" vertex="1" parent="WIyWlLk6GJQsqaUBKTNV-1">
          <mxGeometry x="70" y="110" width="120" height="60" as="geometry" />
        </mxCell>
        <mxCell id="oKDmXH82qVewaRRwdx9o-25" style="edgeStyle=orthogonalEdgeStyle;rounded=0;orthogonalLoop=1;jettySize=auto;html=1;exitX=1;exitY=0.25;exitDx=0;exitDy=0;" edge="1" parent="WIyWlLk6GJQsqaUBKTNV-1" source="oKDmXH82qVewaRRwdx9o-21" target="oKDmXH82qVewaRRwdx9o-23">
          <mxGeometry relative="1" as="geometry" />
        </mxCell>
        <mxCell id="oKDmXH82qVewaRRwdx9o-26" style="edgeStyle=orthogonalEdgeStyle;rounded=0;orthogonalLoop=1;jettySize=auto;html=1;exitX=1;exitY=0.75;exitDx=0;exitDy=0;" edge="1" parent="WIyWlLk6GJQsqaUBKTNV-1" source="oKDmXH82qVewaRRwdx9o-21" target="oKDmXH82qVewaRRwdx9o-24">
          <mxGeometry relative="1" as="geometry" />
        </mxCell>
        <mxCell id="oKDmXH82qVewaRRwdx9o-21" value="销售人员" style="rounded=1;whiteSpace=wrap;html=1;" vertex="1" parent="WIyWlLk6GJQsqaUBKTNV-1">
          <mxGeometry x="70" y="490" width="120" height="60" as="geometry" />
        </mxCell>
        <mxCell id="oKDmXH82qVewaRRwdx9o-23" value="进货" style="rounded=1;whiteSpace=wrap;html=1;" vertex="1" parent="WIyWlLk6GJQsqaUBKTNV-1">
          <mxGeometry x="270" y="450" width="120" height="60" as="geometry" />
        </mxCell>
        <mxCell id="oKDmXH82qVewaRRwdx9o-24" value="录入书籍" style="rounded=1;whiteSpace=wrap;html=1;" vertex="1" parent="WIyWlLk6GJQsqaUBKTNV-1">
          <mxGeometry x="270" y="540" width="120" height="60" as="geometry" />
        </mxCell>
        <mxCell id="oKDmXH82qVewaRRwdx9o-30" style="edgeStyle=orthogonalEdgeStyle;rounded=0;orthogonalLoop=1;jettySize=auto;html=1;exitX=1;exitY=0.25;exitDx=0;exitDy=0;" edge="1" parent="WIyWlLk6GJQsqaUBKTNV-1" source="oKDmXH82qVewaRRwdx9o-27" target="oKDmXH82qVewaRRwdx9o-28">
          <mxGeometry relative="1" as="geometry" />
        </mxCell>
        <mxCell id="oKDmXH82qVewaRRwdx9o-31" style="edgeStyle=orthogonalEdgeStyle;rounded=0;orthogonalLoop=1;jettySize=auto;html=1;exitX=1;exitY=0.75;exitDx=0;exitDy=0;entryX=0;entryY=0.5;entryDx=0;entryDy=0;" edge="1" parent="WIyWlLk6GJQsqaUBKTNV-1" source="oKDmXH82qVewaRRwdx9o-27" target="oKDmXH82qVewaRRwdx9o-29">
          <mxGeometry relative="1" as="geometry" />
        </mxCell>
        <mxCell id="oKDmXH82qVewaRRwdx9o-27" value="顾客" style="rounded=1;whiteSpace=wrap;html=1;" vertex="1" parent="WIyWlLk6GJQsqaUBKTNV-1">
          <mxGeometry x="70" y="650" width="120" height="60" as="geometry" />
        </mxCell>
        <mxCell id="oKDmXH82qVewaRRwdx9o-28" value="查询图书" style="rounded=1;whiteSpace=wrap;html=1;" vertex="1" parent="WIyWlLk6GJQsqaUBKTNV-1">
          <mxGeometry x="270" y="610" width="120" height="60" as="geometry" />
        </mxCell>
        <mxCell id="oKDmXH82qVewaRRwdx9o-29" value="购买图书" style="rounded=1;whiteSpace=wrap;html=1;" vertex="1" parent="WIyWlLk6GJQsqaUBKTNV-1">
          <mxGeometry x="270" y="700" width="120" height="60" as="geometry" />
        </mxCell>
        <mxCell id="oKDmXH82qVewaRRwdx9o-36" style="edgeStyle=orthogonalEdgeStyle;rounded=0;orthogonalLoop=1;jettySize=auto;html=1;exitX=1;exitY=0.25;exitDx=0;exitDy=0;entryX=0;entryY=0.5;entryDx=0;entryDy=0;" edge="1" parent="WIyWlLk6GJQsqaUBKTNV-1" source="oKDmXH82qVewaRRwdx9o-32" target="oKDmXH82qVewaRRwdx9o-33">
          <mxGeometry relative="1" as="geometry" />
        </mxCell>
        <mxCell id="oKDmXH82qVewaRRwdx9o-37" style="edgeStyle=orthogonalEdgeStyle;rounded=0;orthogonalLoop=1;jettySize=auto;html=1;exitX=1;exitY=0.5;exitDx=0;exitDy=0;entryX=0;entryY=0.5;entryDx=0;entryDy=0;" edge="1" parent="WIyWlLk6GJQsqaUBKTNV-1" source="oKDmXH82qVewaRRwdx9o-32" target="oKDmXH82qVewaRRwdx9o-34">
          <mxGeometry relative="1" as="geometry" />
        </mxCell>
        <mxCell id="oKDmXH82qVewaRRwdx9o-38" style="edgeStyle=orthogonalEdgeStyle;rounded=0;orthogonalLoop=1;jettySize=auto;html=1;exitX=1;exitY=0.75;exitDx=0;exitDy=0;entryX=0;entryY=0.5;entryDx=0;entryDy=0;" edge="1" parent="WIyWlLk6GJQsqaUBKTNV-1" source="oKDmXH82qVewaRRwdx9o-32" target="oKDmXH82qVewaRRwdx9o-35">
          <mxGeometry relative="1" as="geometry">
            <Array as="points">
              <mxPoint x="190" y="880" />
              <mxPoint x="230" y="880" />
              <mxPoint x="230" y="920" />
            </Array>
          </mxGeometry>
        </mxCell>
        <mxCell id="oKDmXH82qVewaRRwdx9o-32" value="店长" style="rounded=1;whiteSpace=wrap;html=1;" vertex="1" parent="WIyWlLk6GJQsqaUBKTNV-1">
          <mxGeometry x="70" y="790" width="120" height="60" as="geometry" />
        </mxCell>
        <mxCell id="oKDmXH82qVewaRRwdx9o-33" value="新增和删除账号" style="rounded=1;whiteSpace=wrap;html=1;" vertex="1" parent="WIyWlLk6GJQsqaUBKTNV-1">
          <mxGeometry x="270" y="780" width="120" height="40" as="geometry" />
        </mxCell>
        <mxCell id="oKDmXH82qVewaRRwdx9o-34" value="修改账号权限" style="rounded=1;whiteSpace=wrap;html=1;" vertex="1" parent="WIyWlLk6GJQsqaUBKTNV-1">
          <mxGeometry x="270" y="830" width="120" height="40" as="geometry" />
        </mxCell>
        <mxCell id="oKDmXH82qVewaRRwdx9o-35" value="查询采购信息/销售情况/盈利信息/工作报告/系统日志" style="rounded=1;whiteSpace=wrap;html=1;" vertex="1" parent="WIyWlLk6GJQsqaUBKTNV-1">
          <mxGeometry x="270" y="890" width="120" height="60" as="geometry" />
        </mxCell>
      </root>
    </mxGraphModel>
  </diagram>
</mxfile>
